<?xml version="1.0" encoding="utf-8"?>
<!DOCTYPE svg PUBLIC "-//W3C//DTD SVG 1.1//EN" "http://www.w3.org/Graphics/SVG/1.1/DTD/svg11.dtd">
<svg version="1.1" id="phone" xmlns="http://www.w3.org/2000/svg" xmlns:xlink="http://www.w3.org/1999/xlink" x="0px"
	 y="0px" viewBox="0 0 370 780" enable-background="new 0 0 370 780" xml:space="preserve">
<g>
	<path fill="#221714" d="M315.5,780.5l-260.6,0c-30.1,0-54.6-24.5-54.6-54.6l0-670.7C0.3,25,24.8,0.5,54.9,0.5l260.6,0
		c30.1,0,54.6,24.5,54.6,54.6l0,670.7C370.2,756,345.7,780.5,315.5,780.5z M54.9,1C25,1,0.8,25.3,0.8,55.2l0,670.7
		C0.8,755.7,25,780,54.9,780l260.6,0c29.9,0,54.1-24.3,54.1-54.1l0-670.7c0-29.9-24.3-54.1-54.1-54.1L54.9,1z"/>
	<g>
		<defs>
			<path id="SVGID_1_" d="M315.4,780.5l-260.6,0c-30.1,0-54.6-24.5-54.6-54.6l0-670.7C0.2,25,24.7,0.5,54.8,0.5l260.6,0
				c30.1,0,54.6,24.5,54.6,54.6l0,670.7C370.1,756,345.6,780.5,315.4,780.5z M54.8,1C24.9,1,0.7,25.3,0.7,55.2l0,670.7
				c0,29.9,24.3,54.1,54.1,54.1l260.6,0c29.9,0,54.1-24.3,54.1-54.1l0-670.7c0-29.9-24.3-54.1-54.1-54.1L54.8,1z"/>
		</defs>
		<clipPath id="SVGID_2_">
			<use xlink:href="#SVGID_1_"  overflow="visible"/>
		</clipPath>
		<use xlink:href="#SVGID_1_"  overflow="visible" fill="none" stroke="#FF5294" stroke-width="0.9984" stroke-miterlimit="10"/>
	</g>
	<path fill="none" stroke="#FF5294" stroke-width="0.9984" stroke-miterlimit="10" d="M315.4,770.7l-260.6,0
		c-24.7,0-44.8-20.1-44.8-44.8l0-670.7c0-24.7,20.1-44.8,44.8-44.8l260.6,0c24.7,0,44.8,20.1,44.8,44.8l0,670.7
		C360.3,750.6,340.2,770.7,315.4,770.7z M54.8,10.8c-24.5,0-44.3,19.9-44.3,44.3l0,670.7c0,24.5,19.9,44.3,44.3,44.3l260.6,0
		c24.4,0,44.3-19.9,44.3-44.3l0-670.7c0-24.5-19.9-44.3-44.3-44.3L54.8,10.8z"/>
	<path fill="none" stroke="#FF5294" stroke-width="0.9984" stroke-miterlimit="10" d="M211.7,75.3l-53.3,0c-3.9,0-7-3.2-7-7
		c0-3.9,3.2-7,7-7l53.3,0c3.9,0,7,3.2,7,7C218.7,72.1,215.6,75.3,211.7,75.3z M158.4,61.7c-3.6,0-6.5,2.9-6.5,6.5
		c0,3.6,2.9,6.5,6.5,6.5l53.3,0c3.6,0,6.5-2.9,6.5-6.5c0-3.6-2.9-6.5-6.5-6.5L158.4,61.7z"/>
	<path fill="none" stroke="#FF5294" stroke-width="0.9984" stroke-miterlimit="10" d="M185.1,757.4c-18.8,0-34-15.3-34-34.1
		c0-18.8,15.3-34.1,34-34.1c18.8,0,34.1,15.3,34.1,34.1C219.1,742.1,203.9,757.4,185.1,757.4z M185.1,689.8
		c-18.5,0-33.6,15.1-33.6,33.6c0,18.5,15.1,33.6,33.6,33.6c18.5,0,33.6-15.1,33.6-33.6C218.6,704.8,203.6,689.8,185.1,689.8z"/>
	<path fill="none" stroke="#FF5294" stroke-width="0.9984" stroke-miterlimit="10" d="M198.2,731.8c0,2.6-2.1,4.7-4.7,4.7h-16.7
		c-2.6,0-4.7-2.1-4.7-4.7v-16.7c0-2.6,2.1-4.7,4.7-4.7h16.7c2.6,0,4.7,2.1,4.7,4.7L198.2,731.8z M197.7,715.1c0-2.3-1.9-4.2-4.2-4.2
		h-16.7c-2.3,0-4.2,1.9-4.2,4.2l0,16.7c0,2.3,1.9,4.2,4.2,4.2h16.7c2.3,0,4.2-1.9,4.2-4.2L197.7,715.1z"/>
</g>
</svg>
