<?xml version="1.0" encoding="utf-8"?>
<!DOCTYPE svg PUBLIC "-//W3C//DTD SVG 1.1//EN" "http://www.w3.org/Graphics/SVG/1.1/DTD/svg11.dtd">
<svg version="1.1" id="cake" xmlns="http://www.w3.org/2000/svg" xmlns:xlink="http://www.w3.org/1999/xlink" x="0px"
	 y="0px" viewBox="0 0 320 568" enable-background="new 0 0 320 568" xml:space="preserve">
<rect fill="#FF5294" width="320" height="568"/>
<g>
	<path fill="#FFD400" d="M161.2,444.9v35.5H183l6.4-31.7C183.1,449.5,172.9,445.2,161.2,444.9z"/>
	<path fill="#FFC600" d="M160,444.8c-12.2,0-22.9,4.7-29.4,3.8l6.4,31.7h21.8h2.4v-35.5C160.8,444.9,160.4,444.8,160,444.8z"/>
	<path fill="#C59DCB" d="M158,401.7L158,401.7c-2.7,0.1-5.3,0.6-7.8,1.3l0.1,0.3C152.8,402.4,155.4,401.9,158,401.7z"/>
	<path fill="#A164AD" d="M188.4,425.5l0.2,0.9l-1.9,0.5c-4.7,2.9-8.1-1-25.5,0l-2.4,0.9l-0.3-0.7c-5,0.4-8.7,1.1-11.9,1.6l-0.3,2.9
		l-4-0.4l0.2-2.1c-2,0.2-4,0.1-6.2-0.3c-15.2-2.6-4.6-17.6,10.2-24.2l-0.2-0.5c-13.1,5.4-22.4,18.3-22.4,33.3
		c0,7.7,2.4,10.5,6.6,11.1c6.5,0.9,17.3-3.8,29.4-3.8c0.4,0,0.8,0,1.2,0c11.7,0.3,21.9,4.7,28.2,3.8c4.1-0.6,6.6-3.4,6.6-11.1
		c0-7.8-2.5-15.1-6.8-21C190.9,419.9,190.9,423.1,188.4,425.5z"/>
	<path fill="#C59DCB" d="M169.1,402.7c-2.3-0.6-4.7-1-7.1-1.1v0C164.4,401.8,166.8,402.2,169.1,402.7z"/>
	<path fill="#BF7BAD" d="M162,408.8h-4v-7.2c-2.6,0.2-5.2,0.8-7.7,1.6l2,4.8l-3.7,1.5l-2-4.9c-14.8,6.6-25.3,21.6-10.2,24.2
		c2.2,0.4,4.2,0.4,6.2,0.3l0.2-1.7l4,0.4l-0.1,0.8c3.2-0.5,6.9-1.2,11.9-1.6l-1.4-3.9l3.8-1.4l1.7,4.6l-1.4,0.5
		c17.4-1.1,20.9,2.9,25.5,0l-1.9,0.5l-1.3-5.4l3.9-0.9l1.1,4.5c2.4-2.4,2.5-5.6,0.8-8.9c-2.3-4.6-7.9-9.3-15-12.2l-0.6,4.6l-4-0.5
		l0.7-5.5c-0.4-0.1-0.8-0.2-1.3-0.3c-2.3-0.6-4.7-1-7.1-1.1V408.8z M137.2,421.9l-2.7-2.9l4.2-4l2.7,2.9L137.2,421.9z M172.8,417.8
		l2.9,2l-2.3,3.3l-2.9-2L172.8,417.8z"/>

		<rect x="135.9" y="415.5" transform="matrix(-0.6856 -0.728 0.728 -0.6856 -72.1904 805.7136)" fill="#FFFFFF" width="4" height="5.8"/>
	<polygon fill="#FFFFFF" points="142.8,427.5 142.6,429.2 142.4,431.3 146.4,431.6 146.7,428.7 146.8,427.9 	"/>
	<polygon fill="#FFFFFF" points="160.9,421.8 157.1,423.2 158.6,427.1 158.8,427.7 161.2,426.9 162.6,426.4 	"/>

		<rect x="171.3" y="418.4" transform="matrix(0.8211 0.5708 -0.5708 0.8211 270.9582 -23.5809)" fill="#FFFFFF" width="3.5" height="4"/>
	<polygon fill="#FFFFFF" points="183.5,421.9 184.7,427.3 186.7,426.9 188.6,426.4 188.4,425.5 187.4,421 	"/>
	<polygon fill="#FFFFFF" points="148.6,409.6 152.3,408.1 150.3,403.3 150.2,403 143.8,387.3 140.1,388.8 146.4,404.3 146.6,404.7
		"/>
	<polygon fill="#FFFFFF" points="158,408.8 162,408.8 162,401.6 162,401.6 162,385.8 158,385.8 158,401.6 158,401.7 	"/>
	<polygon fill="#FFFFFF" points="169.7,408.6 173.6,409.1 174.2,404.4 176.5,386.1 172.5,385.6 170.4,403.1 	"/>
	<circle fill="#FFD400" cx="160" cy="378.8" r="3.5"/>
	<circle fill="#FFD400" cx="140" cy="382.3" r="3.5"/>
	<circle fill="#FFD400" cx="175.2" cy="379.8" r="3.5"/>
</g>
<g>
	<circle fill="#FFFFFF" cx="160" cy="215.3" r="127.7"/>
	<g>
		<path fill="#A164AD" d="M96.5,131.6c1.6,0,3.2,0.1,4.9,0.4c1.7,0.3,3.3,0.7,4.9,1.3c1.6,0.6,3.1,1.4,4.5,2.3
			c1.4,0.9,2.6,2,3.7,3.2c1,1.2,1.9,2.6,2.5,4.1s0.9,3.2,0.9,5.1c0,1.8-0.3,3.6-1,5.1c-0.7,1.6-1.6,2.9-2.7,4.1
			c-1.2,1.1-2.6,2-4.2,2.7c-1.6,0.7-3.4,1-5.4,1c-0.9,0-1.9-0.1-2.9-0.2c-1-0.1-2-0.3-3-0.6c-1-0.3-2-0.6-2.9-1.1
			c-1-0.4-1.9-0.9-2.7-1.5c-1,1-2.2,1.8-3.6,2.4s-2.8,0.8-4.3,0.8c-0.8,0-1.6-0.1-2.3-0.3s-1.3-0.4-1.8-0.8
			c-0.5-0.3-0.9-0.7-1.2-1.2c-0.3-0.5-0.4-1-0.4-1.6c0-0.5,0.1-1,0.4-1.4c0.3-0.4,0.6-0.8,1.1-1.2c0.5-0.3,1-0.6,1.7-0.8
			s1.4-0.3,2.1-0.3c2.3,0,4.9,0.8,8,2.5c0.6-0.7,1-1.5,1.4-2.4c0.4-1,0.7-2,0.9-3.1c0.2-1.1,0.4-2.1,0.6-3.2s0.4-2.1,0.5-3.1
			c0.2-1,0.4-1.9,0.8-2.8c0.3-0.9,0.8-1.7,1.3-2.4c0.5-0.7,1.2-1.4,2.1-1.9c0.1-0.1,0.2-0.1,0.4-0.1c0.2,0,0.4,0.1,0.5,0.2
			c0.2,0.1,0.2,0.3,0.2,0.5c0,0.3-0.1,0.5-0.4,0.6c-0.7,0.4-1.3,0.9-1.7,1.5c-0.4,0.6-0.8,1.3-1.1,2c-0.3,0.8-0.5,1.6-0.7,2.4
			c-0.2,0.9-0.3,1.8-0.5,2.7c-0.1,0.8-0.3,1.6-0.4,2.5c-0.2,0.9-0.4,1.7-0.6,2.5s-0.5,1.7-0.9,2.5c-0.4,0.8-0.8,1.5-1.3,2.2
			c0,0,0,0,0,0c0,0,0,0,0,0c1.7,1,3.4,1.7,5.2,2.2c1.8,0.5,3.5,0.8,5.2,0.8c1.8,0,3.5-0.3,5-0.9c1.5-0.6,2.7-1.4,3.7-2.5
			s1.8-2.2,2.3-3.6c0.5-1.4,0.8-2.8,0.8-4.4c0-1.6-0.3-3-0.8-4.4c-0.5-1.3-1.2-2.6-2.1-3.7c-0.9-1.1-2-2.1-3.2-2.9
			c-1.2-0.9-2.6-1.6-4-2.2c-1.4-0.6-2.9-1-4.5-1.3c-1.6-0.3-3.2-0.5-4.8-0.5c-2.1,0-4.1,0.2-5.8,0.5c-1.8,0.4-3.3,0.9-4.6,1.6
			c-1.3,0.7-2.3,1.5-3,2.5c-0.7,1-1.1,2.1-1.1,3.4c0,0.7,0.1,1.4,0.3,1.9c0.2,0.6,0.5,1,0.8,1.5s0.7,0.8,1.1,1
			c0.4,0.3,0.8,0.5,1.1,0.7c0.3,0.2,0.6,0.3,0.9,0.4c0.2,0.1,0.4,0.1,0.4,0.1c0.2,0,0.3,0.1,0.4,0.3s0.1,0.3,0.1,0.5
			c0,0.2-0.1,0.4-0.2,0.5s-0.3,0.2-0.5,0.2c-0.3,0-0.6-0.1-1-0.2c-0.4-0.1-0.8-0.3-1.2-0.6c-0.4-0.3-0.9-0.6-1.3-1
			c-0.4-0.4-0.8-0.8-1.2-1.4c-0.4-0.5-0.6-1.1-0.8-1.8s-0.3-1.4-0.3-2.2c0-1.5,0.4-2.8,1.1-4c0.7-1.2,1.8-2.2,3.2-3s3-1.5,4.9-1.9
			C92,131.8,94.2,131.6,96.5,131.6z M91.6,156.7c-1.4-0.7-2.6-1.3-3.8-1.6c-1.2-0.4-2.2-0.5-3.2-0.5c-0.5,0-1.1,0.1-1.5,0.2
			c-0.5,0.1-0.9,0.3-1.2,0.5c-0.3,0.2-0.6,0.4-0.8,0.7s-0.3,0.6-0.3,0.9c0,0.3,0.1,0.6,0.3,0.9c0.2,0.3,0.4,0.5,0.8,0.8
			c0.4,0.2,0.8,0.4,1.3,0.5c0.5,0.1,1.2,0.2,1.9,0.2c1.2,0,2.4-0.2,3.5-0.7C89.7,158.1,90.7,157.5,91.6,156.7z"/>
		<path fill="#A164AD" d="M122.2,158.2c0.3,0.4,0.6,0.7,1.1,0.9c0.4,0.2,1,0.3,1.6,0.3c0.6,0,1.2-0.2,1.7-0.5c0.5-0.3,1-0.7,1.4-1.2
			c0.4-0.5,0.8-1,1.2-1.7c0.3-0.6,0.6-1.2,0.9-1.8c0.1-0.1,0.2-0.3,0.3-0.3c0.1-0.1,0.2-0.1,0.4-0.1c0.2,0,0.4,0.1,0.5,0.2
			s0.2,0.3,0.2,0.5c0,0.1,0,0.1,0,0.2c0,0,0,0.1-0.1,0.1c-0.9,2-1.9,3.5-2.9,4.5c-1.1,1-2.3,1.5-3.6,1.5c-0.9,0-1.6-0.2-2.2-0.5
			s-1.1-0.8-1.5-1.3c-0.4-0.5-0.7-1.1-0.9-1.8s-0.3-1.3-0.3-2s0.1-1.3,0.2-1.8c0.2-0.6,0.4-1,0.7-1.5c0.3-0.4,0.7-0.7,1.1-1
			c0.4-0.2,0.9-0.4,1.4-0.4c0.3,0,0.6,0.1,0.9,0.2c0.3,0.1,0.6,0.3,0.8,0.5c0.2,0.2,0.4,0.5,0.6,0.8c0.1,0.3,0.2,0.7,0.2,1.1
			c0,0.5-0.1,1-0.3,1.5c-0.2,0.5-0.4,0.9-0.8,1.3c-0.3,0.4-0.7,0.8-1.1,1.1C123.2,157.7,122.7,157.9,122.2,158.2z M121.6,156.9
			c0.4-0.2,0.8-0.4,1.1-0.6c0.3-0.3,0.6-0.5,0.8-0.9s0.4-0.6,0.5-1c0.1-0.3,0.2-0.7,0.2-1c0-0.4-0.1-0.7-0.3-0.9
			c-0.2-0.2-0.4-0.3-0.7-0.3c-0.4,0-0.7,0.1-0.9,0.3c-0.2,0.2-0.4,0.4-0.6,0.8s-0.3,0.7-0.3,1c-0.1,0.4-0.1,0.8-0.1,1.1
			c0,0.2,0,0.5,0.1,0.7C121.5,156.4,121.5,156.7,121.6,156.9z"/>
		<path fill="#A164AD" d="M145.2,154.9c-0.1,0.1-0.2,0.3-0.3,0.7c-0.2,0.3-0.4,0.7-0.6,1.1s-0.6,0.9-0.9,1.3
			c-0.3,0.5-0.7,0.9-1.1,1.3c-0.4,0.4-0.9,0.7-1.3,1c-0.5,0.3-1,0.4-1.5,0.4c-0.8,0-1.4-0.2-1.9-0.7c-0.5-0.5-0.9-1.1-1.1-1.8
			c-0.4,0.7-1,1.3-1.6,1.8c-0.6,0.4-1.2,0.7-1.8,0.7c-0.5,0-0.9-0.1-1.3-0.3s-0.7-0.4-1-0.7c-0.3-0.3-0.5-0.7-0.6-1.1
			c-0.1-0.4-0.2-0.9-0.2-1.4c0-1,0.2-1.9,0.5-2.7c0.3-0.8,0.8-1.4,1.3-1.9c0.5-0.5,1.1-0.9,1.8-1.2c0.6-0.3,1.3-0.4,1.9-0.4
			c0.4,0,0.8,0.1,1.1,0.2c0.3,0.1,0.6,0.2,0.9,0.4c0.2,0.1,0.4,0.3,0.6,0.4c0.1,0.1,0.2,0.2,0.2,0.2c0.1,0.2,0.2,0.3,0.2,0.5
			c0,0.2-0.1,0.4-0.2,0.5c-0.1,0.1-0.3,0.2-0.5,0.2c-0.2,0-0.4-0.1-0.5-0.2c0,0-0.1-0.1-0.2-0.1c-0.1-0.1-0.2-0.1-0.4-0.2
			s-0.3-0.1-0.6-0.2s-0.5-0.1-0.7-0.1c-0.4,0-0.8,0.1-1.3,0.3c-0.5,0.2-0.9,0.5-1.2,0.8c-0.4,0.4-0.7,0.9-0.9,1.4
			c-0.3,0.6-0.4,1.3-0.4,2.1c0,0.2,0,0.5,0.1,0.8c0.1,0.3,0.1,0.5,0.3,0.7c0.1,0.2,0.3,0.4,0.5,0.5c0.2,0.1,0.5,0.2,0.8,0.2
			c0.2,0,0.5-0.1,0.8-0.2c0.3-0.2,0.6-0.4,0.9-0.7c0.3-0.3,0.5-0.7,0.8-1.2c0.2-0.5,0.4-1.1,0.5-1.8c0-0.2,0.1-0.3,0.3-0.5
			c0.1-0.1,0.3-0.2,0.5-0.2c0.2,0,0.3,0.1,0.5,0.2c0.1,0.1,0.2,0.3,0.2,0.5c0,0.2,0,0.6,0.1,1s0.1,0.9,0.3,1.3
			c0.1,0.4,0.3,0.8,0.6,1.2c0.3,0.3,0.7,0.5,1.1,0.5c0.3,0,0.6-0.1,0.9-0.3c0.3-0.2,0.6-0.4,0.9-0.7c0.3-0.3,0.6-0.6,0.8-1
			c0.3-0.4,0.5-0.7,0.7-1.1c0.2-0.4,0.4-0.7,0.6-1.1c0.2-0.3,0.3-0.6,0.4-0.9c0.1-0.1,0.2-0.3,0.3-0.3c0.1-0.1,0.3-0.1,0.4-0.1
			c0.2,0,0.4,0.1,0.5,0.2c0.1,0.2,0.2,0.3,0.2,0.5C145.2,154.7,145.2,154.8,145.2,154.9z"/>
		<path fill="#A164AD" d="M145.9,152.3c-0.1,0.4-0.1,0.7-0.2,1c-0.1,0.3-0.2,0.6-0.2,0.8c-0.1,0.2-0.1,0.4-0.2,0.6
			c-0.1,0.1-0.1,0.2-0.1,0.2c-0.1,0.3-0.4,0.4-0.7,0.4c-0.2,0-0.4-0.1-0.5-0.2s-0.2-0.3-0.2-0.5c0-0.1,0-0.1,0-0.2
			c0,0,0.1-0.1,0.1-0.2c0.1-0.1,0.1-0.3,0.2-0.6s0.2-0.7,0.3-1.3c-0.2,0-0.4,0-0.7,0c-0.2,0-0.5-0.1-0.7-0.1s-0.4-0.2-0.5-0.4
			c-0.1-0.2-0.2-0.4-0.2-0.7c0-0.2,0.1-0.5,0.2-0.9c0.1-0.4,0.3-0.7,0.5-1.1c0.2-0.4,0.4-0.7,0.7-0.9c0.3-0.3,0.5-0.4,0.8-0.4
			c0.3,0,0.5,0.1,0.7,0.3c0.2,0.2,0.3,0.5,0.4,0.8c0.1,0.3,0.2,0.7,0.2,1c0,0.4,0.1,0.7,0.1,0.9c0.2,0,0.4,0,0.7,0
			c0.2,0,0.4,0,0.6,0c0.7,0,1.3,0.2,1.7,0.5c0.4,0.3,0.6,0.9,0.6,1.6c0,0.3,0,0.6-0.1,0.9c0,0.3-0.1,0.7-0.1,1
			c-0.1,0.3-0.1,0.7-0.1,1c0,0.3-0.1,0.7-0.1,1c0,0.5,0.1,0.9,0.2,1.2c0.1,0.3,0.3,0.6,0.5,0.7c0.2,0.2,0.4,0.3,0.6,0.4
			c0.2,0.1,0.4,0.1,0.6,0.1c0.6,0,1.1-0.2,1.6-0.5c0.5-0.4,1-0.8,1.4-1.3c0.4-0.5,0.8-1.1,1.1-1.6c0.3-0.6,0.6-1.1,0.8-1.5
			c0.1-0.1,0.2-0.2,0.3-0.3c0.1-0.1,0.2-0.1,0.4-0.1c0.2,0,0.4,0.1,0.5,0.2c0.1,0.1,0.2,0.3,0.2,0.5c0,0.1,0,0.2-0.1,0.4
			c-0.3,0.5-0.6,1.1-1,1.8c-0.4,0.7-0.8,1.3-1.4,1.9s-1.1,1.1-1.7,1.5c-0.6,0.4-1.3,0.6-2.1,0.6c-0.5,0-0.9-0.1-1.3-0.3
			c-0.4-0.2-0.8-0.4-1.1-0.8c-0.3-0.3-0.6-0.7-0.7-1.2c-0.2-0.5-0.3-1-0.3-1.7c0-0.7,0.1-1.3,0.2-1.9c0.1-0.6,0.2-1.3,0.2-1.8
			c0-0.2-0.1-0.4-0.2-0.6c-0.1-0.1-0.4-0.2-0.7-0.2c-0.2,0-0.4,0-0.6,0S146.1,152.3,145.9,152.3z M144.6,150.9c0-0.1,0-0.2,0-0.4
			c0-0.1,0-0.3,0-0.4c0-0.1,0-0.3-0.1-0.4c0-0.1-0.1-0.2-0.1-0.2s-0.1,0-0.1,0.1s-0.1,0.2-0.2,0.4c-0.1,0.1-0.1,0.3-0.2,0.4
			c-0.1,0.2-0.1,0.3-0.1,0.4H144.6z"/>
		<path fill="#A164AD" d="M178.4,154.9c0,0.7-0.1,1.4-0.3,2s-0.4,1.3-0.7,1.8s-0.7,1-1.2,1.3s-1.1,0.5-1.8,0.5
			c-0.5,0-0.9-0.1-1.2-0.2s-0.6-0.3-0.9-0.5c-0.3-0.2-0.5-0.5-0.6-0.8s-0.3-0.6-0.4-0.9c-0.5,0.8-1,1.3-1.6,1.7s-1.2,0.6-1.8,0.6
			c-0.5,0-0.9-0.1-1.3-0.3s-0.7-0.4-1-0.8s-0.5-0.7-0.7-1.2s-0.2-1-0.2-1.6c0-1,0.1-1.8,0.3-2.5c0.2-0.7,0.4-1.3,0.6-1.7
			c0.2-0.5,0.5-0.9,0.9-1.4c0.1-0.1,0.1-0.1,0.2-0.2s0.2-0.1,0.3-0.1c0.2,0,0.4,0.1,0.5,0.2c0.1,0.1,0.2,0.3,0.2,0.5
			c0,0.1-0.1,0.3-0.2,0.5c-0.1,0.1-0.2,0.2-0.3,0.4c-0.1,0.2-0.3,0.5-0.5,0.9c-0.2,0.4-0.3,0.8-0.4,1.4s-0.2,1.2-0.2,1.9
			c0,0.8,0.2,1.4,0.5,1.7c0.3,0.4,0.7,0.6,1.3,0.6c0.3,0,0.6-0.1,0.9-0.2c0.3-0.1,0.6-0.4,0.9-0.7s0.5-0.7,0.7-1.2
			c0.2-0.5,0.3-1,0.4-1.7l0.3-3.4c0-0.2,0.1-0.4,0.2-0.5c0.1-0.1,0.3-0.2,0.5-0.2c0.2,0,0.4,0.1,0.5,0.2c0.1,0.2,0.2,0.3,0.2,0.6
			l-0.2,3.2c0,0.7,0,1.3,0.1,1.8c0.1,0.5,0.2,0.9,0.4,1.2c0.2,0.3,0.4,0.6,0.7,0.7c0.3,0.1,0.6,0.2,1,0.2c0.5,0,0.9-0.1,1.2-0.4
			s0.6-0.6,0.8-1.1s0.3-1,0.4-1.6c0.1-0.6,0.1-1.3,0.1-2c0-0.8,0-1.5-0.1-2.1s-0.1-0.9-0.1-1.1c0-0.2,0.1-0.4,0.2-0.5
			c0.1-0.1,0.3-0.2,0.5-0.2c0.2,0,0.3,0.1,0.5,0.2c0.1,0.1,0.2,0.3,0.3,0.4c0,0.1,0.1,0.2,0.1,0.4c0.1,0.2,0.2,0.5,0.3,0.9
			c0.1,0.3,0.3,0.7,0.5,1.1c0.2,0.4,0.4,0.7,0.7,1.1c0.3,0.3,0.6,0.6,0.9,0.8s0.7,0.3,1.2,0.3c0.2,0,0.5,0,0.6-0.1s0.3-0.2,0.4-0.3
			c0.1-0.1,0.2-0.3,0.3-0.4s0.1-0.2,0.1-0.2c0.1-0.1,0.2-0.3,0.3-0.3c0.1-0.1,0.3-0.1,0.4-0.1c0.2,0,0.4,0.1,0.5,0.2
			c0.1,0.2,0.2,0.3,0.2,0.5c0,0.2-0.1,0.4-0.2,0.6c-0.1,0.3-0.3,0.5-0.6,0.8c-0.2,0.2-0.5,0.4-0.9,0.6s-0.8,0.3-1.2,0.3
			c-0.4,0-0.7-0.1-1.1-0.2c-0.3-0.1-0.6-0.3-0.9-0.4c-0.3-0.2-0.5-0.4-0.8-0.6S178.6,155.2,178.4,154.9z"/>
		<path fill="#A164AD" d="M198.4,154.9c-0.1,0.1-0.2,0.3-0.3,0.7s-0.4,0.7-0.6,1.1s-0.5,0.9-0.9,1.3s-0.7,0.9-1.1,1.3
			s-0.9,0.7-1.3,1s-1,0.4-1.5,0.4c-0.8,0-1.4-0.2-1.9-0.7s-0.9-1.1-1.1-1.8c-0.4,0.7-1,1.3-1.6,1.8c-0.6,0.4-1.2,0.7-1.8,0.7
			c-0.5,0-0.9-0.1-1.3-0.3s-0.7-0.4-1-0.7c-0.3-0.3-0.5-0.7-0.6-1.1s-0.2-0.9-0.2-1.4c0-1,0.2-1.9,0.5-2.7c0.3-0.8,0.8-1.4,1.3-1.9
			c0.5-0.5,1.1-0.9,1.8-1.2c0.6-0.3,1.3-0.4,1.9-0.4c0.4,0,0.8,0.1,1.1,0.2c0.3,0.1,0.6,0.2,0.9,0.4c0.2,0.1,0.4,0.3,0.6,0.4
			c0.1,0.1,0.2,0.2,0.2,0.2c0.1,0.2,0.2,0.3,0.2,0.5c0,0.2-0.1,0.4-0.2,0.5c-0.1,0.1-0.3,0.2-0.5,0.2c-0.2,0-0.4-0.1-0.5-0.2
			c0,0-0.1-0.1-0.2-0.1c-0.1-0.1-0.2-0.1-0.4-0.2s-0.3-0.1-0.6-0.2s-0.5-0.1-0.7-0.1c-0.4,0-0.8,0.1-1.3,0.3
			c-0.5,0.2-0.9,0.5-1.2,0.8c-0.4,0.4-0.7,0.9-0.9,1.4c-0.3,0.6-0.4,1.3-0.4,2.1c0,0.2,0,0.5,0.1,0.8s0.1,0.5,0.3,0.7
			c0.1,0.2,0.3,0.4,0.5,0.5c0.2,0.1,0.5,0.2,0.8,0.2c0.2,0,0.5-0.1,0.8-0.2s0.6-0.4,0.9-0.7c0.3-0.3,0.5-0.7,0.8-1.2
			c0.2-0.5,0.4-1.1,0.5-1.8c0-0.2,0.1-0.3,0.3-0.5c0.1-0.1,0.3-0.2,0.5-0.2c0.2,0,0.3,0.1,0.5,0.2c0.1,0.1,0.2,0.3,0.2,0.5
			c0,0.2,0,0.6,0.1,1s0.1,0.9,0.3,1.3c0.1,0.4,0.3,0.8,0.6,1.2c0.3,0.3,0.7,0.5,1.1,0.5c0.3,0,0.6-0.1,0.9-0.3
			c0.3-0.2,0.6-0.4,0.9-0.7c0.3-0.3,0.6-0.6,0.8-1c0.3-0.4,0.5-0.7,0.7-1.1c0.2-0.4,0.4-0.7,0.6-1.1c0.2-0.3,0.3-0.6,0.4-0.9
			c0.1-0.1,0.2-0.3,0.3-0.3s0.3-0.1,0.4-0.1c0.2,0,0.4,0.1,0.5,0.2c0.1,0.2,0.2,0.3,0.2,0.5C198.4,154.7,198.4,154.8,198.4,154.9z"
			/>
		<path fill="#A164AD" d="M209.8,154.9c-0.1,0.1-0.2,0.4-0.4,0.8c-0.2,0.4-0.4,0.8-0.8,1.3c-0.3,0.5-0.7,1-1.1,1.5s-1,1-1.5,1.4
			c-0.6,0.4-1.2,0.8-1.9,1s-1.5,0.4-2.3,0.4c-0.7,0-1.4-0.1-2-0.4c-0.6-0.3-1.1-0.6-1.5-1.1s-0.7-1.1-0.9-1.7s-0.3-1.4-0.3-2.2
			c0-0.8,0.1-1.5,0.3-2.2s0.5-1.3,0.9-1.8s0.8-0.9,1.3-1.2s1-0.4,1.6-0.4c0.4,0,0.8,0.1,1.2,0.2c0.4,0.1,0.6,0.3,0.9,0.6
			c0.2,0.2,0.4,0.5,0.6,0.8c0.1,0.3,0.2,0.6,0.2,0.9c0,0.3,0,0.6-0.1,0.8c-0.1,0.2-0.2,0.5-0.3,0.7c-0.1,0.2-0.2,0.3-0.4,0.4
			c-0.1,0.1-0.3,0.2-0.4,0.2c-0.2,0-0.4-0.1-0.5-0.2c-0.1-0.1-0.2-0.3-0.2-0.5c0-0.1,0-0.2,0.1-0.3s0.1-0.2,0.2-0.2
			c0.1-0.1,0.1-0.2,0.2-0.3c0-0.1,0.1-0.3,0.1-0.5c0-0.3-0.1-0.5-0.4-0.7c-0.3-0.2-0.6-0.3-1-0.3c-0.4,0-0.7,0.1-1,0.3
			c-0.3,0.2-0.6,0.5-0.9,0.9s-0.4,0.8-0.6,1.3c-0.1,0.5-0.2,1-0.2,1.6c0,0.5,0.1,1,0.2,1.5c0.1,0.5,0.3,0.9,0.6,1.3s0.6,0.7,1,0.9
			c0.4,0.2,0.9,0.3,1.4,0.3c0.7,0,1.4-0.1,2-0.4s1.1-0.6,1.6-1s0.9-0.8,1.3-1.3c0.4-0.5,0.7-0.9,1-1.3s0.5-0.8,0.6-1.1
			c0.1-0.3,0.2-0.5,0.3-0.6c0.1-0.1,0.1-0.2,0.3-0.3c0.1-0.1,0.3-0.1,0.4-0.1c0.2,0,0.4,0.1,0.5,0.2s0.2,0.3,0.2,0.5
			C209.9,154.7,209.8,154.8,209.8,154.9z"/>
		<path fill="#A164AD" d="M221.2,154.9c-0.1,0.1-0.2,0.4-0.4,0.8c-0.2,0.4-0.4,0.8-0.8,1.3c-0.3,0.5-0.7,1-1.1,1.5s-1,1-1.5,1.4
			c-0.6,0.4-1.2,0.8-1.9,1s-1.5,0.4-2.3,0.4c-0.7,0-1.4-0.1-2-0.4c-0.6-0.3-1.1-0.6-1.5-1.1s-0.7-1.1-0.9-1.7s-0.3-1.4-0.3-2.2
			c0-0.8,0.1-1.5,0.3-2.2s0.5-1.3,0.9-1.8s0.8-0.9,1.3-1.2s1-0.4,1.6-0.4c0.4,0,0.8,0.1,1.2,0.2c0.4,0.1,0.6,0.3,0.9,0.6
			c0.2,0.2,0.4,0.5,0.6,0.8c0.1,0.3,0.2,0.6,0.2,0.9c0,0.3,0,0.6-0.1,0.8c-0.1,0.2-0.2,0.5-0.3,0.7c-0.1,0.2-0.2,0.3-0.4,0.4
			c-0.1,0.1-0.3,0.2-0.4,0.2c-0.2,0-0.4-0.1-0.5-0.2c-0.1-0.1-0.2-0.3-0.2-0.5c0-0.1,0-0.2,0.1-0.3s0.1-0.2,0.2-0.2
			c0.1-0.1,0.1-0.2,0.2-0.3c0-0.1,0.1-0.3,0.1-0.5c0-0.3-0.1-0.5-0.4-0.7c-0.3-0.2-0.6-0.3-1-0.3c-0.4,0-0.7,0.1-1,0.3
			c-0.3,0.2-0.6,0.5-0.9,0.9s-0.4,0.8-0.6,1.3c-0.1,0.5-0.2,1-0.2,1.6c0,0.5,0.1,1,0.2,1.5c0.1,0.5,0.3,0.9,0.6,1.3s0.6,0.7,1,0.9
			c0.4,0.2,0.9,0.3,1.4,0.3c0.7,0,1.4-0.1,2-0.4s1.1-0.6,1.6-1s0.9-0.8,1.3-1.3c0.4-0.5,0.7-0.9,1-1.3s0.5-0.8,0.6-1.1
			c0.1-0.3,0.2-0.5,0.3-0.6c0.1-0.1,0.1-0.2,0.3-0.3c0.1-0.1,0.3-0.1,0.4-0.1c0.2,0,0.4,0.1,0.5,0.2s0.2,0.3,0.2,0.5
			C221.3,154.7,221.3,154.8,221.2,154.9z"/>
		<path fill="#A164AD" d="M228.9,158.2c-0.3,0-0.6,0-0.9-0.1c-0.2,0.4-0.4,0.8-0.7,1.1s-0.6,0.6-0.9,0.9c-0.4,0.2-0.8,0.4-1.2,0.6
			c-0.4,0.1-0.9,0.2-1.4,0.2c-0.6,0-1.2-0.1-1.7-0.3s-1-0.5-1.3-0.9c-0.4-0.4-0.7-0.8-0.9-1.4c-0.2-0.5-0.3-1.1-0.3-1.8
			c0-0.8,0.1-1.6,0.4-2.2c0.3-0.6,0.6-1.1,1-1.5s0.8-0.7,1.2-0.9c0.4-0.2,0.7-0.3,0.9-0.3c0.2,0,0.4,0.1,0.5,0.2s0.2,0.3,0.2,0.5
			c0,0.2-0.1,0.4-0.2,0.5c-0.1,0.1-0.3,0.2-0.5,0.3c-0.2,0.1-0.4,0.3-0.7,0.4c-0.2,0.2-0.5,0.4-0.7,0.7c-0.2,0.3-0.4,0.6-0.5,1
			s-0.2,0.8-0.2,1.3c0,0.4,0.1,0.8,0.2,1.2s0.3,0.7,0.6,1c0.2,0.3,0.5,0.5,0.9,0.6c0.3,0.1,0.7,0.2,1.1,0.2c0.7,0,1.4-0.2,1.8-0.5
			c0.5-0.3,0.9-0.8,1.1-1.3c-0.8-0.4-1.4-1-1.9-1.7s-0.7-1.6-0.7-2.5c0-0.7,0.2-1.3,0.5-1.8s0.8-0.7,1.4-0.7c0.4,0,0.7,0.1,1,0.3
			c0.3,0.2,0.6,0.4,0.8,0.8c0.2,0.4,0.4,0.8,0.6,1.4c0.1,0.6,0.2,1.3,0.2,2.1c0,0.4-0.1,0.9-0.2,1.3c0.1,0,0.2,0,0.2,0s0.2,0,0.3,0
			c0.4,0,0.8-0.1,1.2-0.2c0.4-0.1,0.7-0.3,1-0.5c0.3-0.2,0.5-0.5,0.8-0.8c0.2-0.3,0.4-0.7,0.7-1.1c0-0.1,0.1-0.2,0.3-0.2
			c0.1-0.1,0.3-0.1,0.4-0.1c0.2,0,0.3,0.1,0.5,0.2s0.2,0.3,0.2,0.5c0,0.1,0,0.2-0.1,0.3c-0.1,0.1-0.1,0.2-0.2,0.3
			c-0.2,0.4-0.5,0.8-0.8,1.1c-0.3,0.4-0.6,0.7-1,0.9c-0.4,0.3-0.8,0.5-1.3,0.6S229.5,158.2,228.9,158.2z M225.6,153.3
			c0,0.2,0,0.5,0.1,0.8s0.2,0.5,0.3,0.8c0.1,0.3,0.3,0.5,0.5,0.8c0.2,0.2,0.4,0.4,0.7,0.6c0-0.3,0.1-0.5,0.1-0.8
			c0-0.4,0-0.7-0.1-1.1c-0.1-0.4-0.1-0.7-0.2-1c-0.1-0.3-0.2-0.6-0.4-0.7c-0.1-0.2-0.3-0.3-0.5-0.3c-0.1,0-0.2,0.1-0.3,0.2
			S225.6,152.9,225.6,153.3z"/>
	</g>
	<g>
		<path fill="#FF5294" d="M89.6,183.3h6.3v11.4h11.6v-11.4h6.3V212h-6.3v-11.5H95.9V212h-6.3V183.3z"/>
		<path fill="#FF5294" d="M130.6,183.1h5.8l12.3,28.9h-6.6l-2.6-6.4h-12.1l-2.6,6.4h-6.4L130.6,183.1z M137.2,200l-3.8-9.3l-3.8,9.3
			H137.2z"/>
		<path fill="#FF5294" d="M153.2,183.3h11.7c1.7,0,3.3,0.2,4.6,0.7c1.4,0.5,2.5,1.2,3.4,2c0.9,0.9,1.7,1.9,2.2,3.1
			c0.5,1.2,0.8,2.6,0.8,4v0.1c0,1.7-0.3,3.1-0.9,4.4c-0.6,1.3-1.4,2.3-2.5,3.2c-1.1,0.8-2.3,1.5-3.7,1.9c-1.4,0.4-2.9,0.6-4.5,0.6
			h-4.8v8.6h-6.3V183.3z M164.5,197.8c1.6,0,2.8-0.4,3.7-1.3c0.9-0.8,1.3-1.9,1.3-3.1v-0.1c0-1.4-0.5-2.5-1.4-3.2
			c-0.9-0.7-2.2-1.1-3.8-1.1h-4.9v8.8H164.5z"/>
		<path fill="#FF5294" d="M180.5,183.3h11.7c1.7,0,3.3,0.2,4.6,0.7c1.4,0.5,2.5,1.2,3.4,2c0.9,0.9,1.7,1.9,2.2,3.1
			c0.5,1.2,0.8,2.6,0.8,4v0.1c0,1.7-0.3,3.1-0.9,4.4c-0.6,1.3-1.4,2.3-2.5,3.2c-1.1,0.8-2.3,1.5-3.7,1.9s-2.9,0.6-4.5,0.6h-4.8v8.6
			h-6.3V183.3z M191.9,197.8c1.6,0,2.8-0.4,3.7-1.3c0.9-0.8,1.3-1.9,1.3-3.1v-0.1c0-1.4-0.5-2.5-1.4-3.2c-0.9-0.7-2.2-1.1-3.8-1.1
			h-4.9v8.8H191.9z"/>
		<path fill="#FF5294" d="M216,200.7l-11-17.4h7.4l6.8,11.5l7-11.5h7.2l-11,17.3V212H216V200.7z"/>
		<path fill="#FF5294" d="M51.2,219.3h13.3c3.3,0,5.8,0.8,7.5,2.5c1.3,1.3,2,2.9,2,4.9v0.1c0,0.8-0.1,1.5-0.3,2.2
			c-0.2,0.6-0.5,1.2-0.8,1.7c-0.3,0.5-0.7,1-1.2,1.3c-0.4,0.4-0.9,0.7-1.4,1c1.7,0.6,3,1.5,3.9,2.6c1,1.1,1.4,2.6,1.4,4.5v0.1
			c0,1.3-0.3,2.5-0.8,3.4c-0.5,1-1.2,1.8-2.2,2.5c-0.9,0.7-2.1,1.1-3.4,1.5c-1.3,0.3-2.8,0.5-4.4,0.5H51.2V219.3z M63.1,230.9
			c1.4,0,2.5-0.2,3.3-0.7c0.8-0.5,1.2-1.3,1.2-2.3v-0.1c0-1-0.4-1.7-1.1-2.2c-0.7-0.5-1.7-0.8-3.1-0.8h-6.2v6.1H63.1z M64.8,242.5
			c1.4,0,2.5-0.3,3.3-0.8c0.8-0.5,1.2-1.3,1.2-2.4v-0.1c0-1-0.4-1.7-1.1-2.3c-0.7-0.6-1.9-0.8-3.6-0.8h-7.3v6.3H64.8z"/>
		<path fill="#FF5294" d="M81.1,219.3h6.3V248h-6.3V219.3z"/>
		<path fill="#FF5294" d="M94.5,219.3h13.1c3.6,0,6.4,1,8.4,2.9c1.6,1.6,2.5,3.8,2.5,6.6v0.1c0,2.3-0.6,4.2-1.7,5.7
			c-1.1,1.5-2.6,2.5-4.4,3.2l7,10.2H112l-6.1-9.2h-0.1h-4.9v9.2h-6.3V219.3z M107.3,233.3c1.6,0,2.8-0.4,3.6-1.1
			c0.8-0.7,1.3-1.7,1.3-3v-0.1c0-1.4-0.4-2.4-1.3-3.1c-0.9-0.7-2.1-1-3.6-1h-6.3v8.2H107.3z"/>
		<path fill="#FF5294" d="M130.9,225.2h-8.7v-5.8h23.8v5.8h-8.7V248h-6.3V225.2z"/>
		<path fill="#FF5294" d="M150.8,219.3h6.3v11.4h11.6v-11.4h6.3V248h-6.3v-11.5h-11.6V248h-6.3V219.3z"/>
		<path fill="#FF5294" d="M181.9,219.3h11.2c2.2,0,4.3,0.4,6.2,1.1c1.9,0.7,3.5,1.7,4.8,3c1.4,1.3,2.4,2.8,3.1,4.5
			c0.7,1.7,1.1,3.6,1.1,5.6v0.1c0,2-0.4,3.9-1.1,5.7c-0.7,1.8-1.8,3.3-3.1,4.6c-1.4,1.3-3,2.3-4.8,3c-1.9,0.7-3.9,1.1-6.2,1.1h-11.2
			V219.3z M193.1,242.3c1.3,0,2.5-0.2,3.5-0.6c1.1-0.4,2-1,2.7-1.8c0.8-0.8,1.3-1.7,1.8-2.7c0.4-1,0.6-2.2,0.6-3.5v-0.1
			c0-1.3-0.2-2.4-0.6-3.5s-1-2-1.8-2.7c-0.8-0.8-1.7-1.4-2.7-1.8c-1.1-0.4-2.2-0.6-3.5-0.6h-4.9v17.3H193.1z"/>
		<path fill="#FF5294" d="M223.8,219.1h5.8l12.3,28.9h-6.6l-2.6-6.4h-12.1L218,248h-6.4L223.8,219.1z M230.5,236l-3.8-9.3l-3.8,9.3
			H230.5z"/>
		<path fill="#FF5294" d="M254.4,236.7l-11-17.4h7.4l6.8,11.5l7-11.5h7.2l-11,17.3V248h-6.3V236.7z"/>
	</g>
	<g>
		<path fill="#A164AD" d="M132.4,288.3c0,1.6-0.2,3.2-0.6,4.7s-1,2.9-1.7,4.2s-1.6,2.5-2.7,3.6s-2.2,2-3.4,2.8s-2.6,1.4-4.1,1.8
			s-3,0.6-4.5,0.6s-3.1-0.2-4.5-0.6s-2.8-1-4.1-1.8s-2.4-1.7-3.4-2.8s-1.9-2.3-2.7-3.6s-1.3-2.7-1.7-4.2s-0.6-3.1-0.6-4.7
			s0.2-3.2,0.6-4.7s1-2.9,1.7-4.2s1.6-2.5,2.7-3.6s2.2-2,3.4-2.8s2.6-1.4,4.1-1.8s3-0.6,4.5-0.6s3.1,0.2,4.5,0.6s2.8,1,4.1,1.8
			s2.4,1.7,3.4,2.8s1.9,2.3,2.7,3.6s1.3,2.7,1.7,4.2S132.4,286.7,132.4,288.3z M130.6,288.3c0-1.5-0.2-2.9-0.6-4.2s-0.9-2.6-1.5-3.8
			s-1.5-2.3-2.4-3.2s-2-1.8-3.1-2.5s-2.3-1.2-3.6-1.6s-2.7-0.6-4.1-0.6s-2.8,0.2-4.1,0.6s-2.5,0.9-3.6,1.6s-2.2,1.5-3.1,2.5
			s-1.7,2-2.4,3.2s-1.2,2.4-1.5,3.8s-0.6,2.8-0.6,4.2s0.2,2.9,0.6,4.2s0.9,2.6,1.5,3.8s1.5,2.3,2.4,3.2s2,1.8,3.1,2.5
			s2.3,1.2,3.6,1.6s2.6,0.6,4.1,0.6s2.8-0.2,4.1-0.6s2.5-0.9,3.6-1.6s2.2-1.5,3.1-2.5s1.7-2,2.4-3.2s1.2-2.4,1.5-3.8
			S130.6,289.8,130.6,288.3z"/>
		<path fill="#A164AD" d="M166.8,284.6c0,2.1-0.3,4.2-1,6.2s-1.6,3.9-2.7,5.7s-2.6,3.4-4.3,4.8s-3.5,2.6-5.5,3.4
			c-1.1,0.5-2.2,0.9-3.2,1.1s-1.9,0.5-2.7,0.6s-1.4,0.2-1.9,0.2s-0.7,0-0.8,0c-0.2,0-0.5-0.1-0.6-0.2s-0.3-0.4-0.3-0.6
			s0.1-0.5,0.3-0.6s0.4-0.2,0.6-0.2c0,0,0.2,0,0.7,0s1-0.1,1.7-0.2s1.5-0.3,2.5-0.6s1.9-0.6,3-1.1c1.8-0.8,3.4-1.8,4.9-3
			s2.8-2.7,3.9-4.3s2-3.4,2.6-5.3s0.9-3.9,0.9-5.9c0-1.6-0.2-3-0.7-4.2s-1.1-2.3-1.8-3.3s-1.6-1.8-2.6-2.4s-2-1.2-3.1-1.6
			s-2.1-0.7-3.1-0.9s-2-0.3-2.9-0.3c-1.2,0-2.4,0.1-3.6,0.4s-2.2,0.6-3.3,1s-2,1-2.8,1.6s-1.6,1.3-2.2,2.1s-1.1,1.7-1.5,2.6
			s-0.5,1.9-0.5,2.9c0,1.1,0.1,2.1,0.4,3s0.7,1.7,1.2,2.3s1.1,1.3,1.8,1.7s1.4,0.9,2.2,1.2s1.6,0.5,2.4,0.7s1.7,0.2,2.5,0.2
			c1.6,0,3.1-0.2,4.6-0.7s2.7-1.1,3.9-1.9s2.1-1.7,2.9-2.8s1.3-2.2,1.7-3.5c0-0.2,0.1-0.4,0.3-0.5s0.3-0.2,0.5-0.2
			c0.3,0,0.5,0.1,0.6,0.3s0.2,0.4,0.2,0.6c0,0,0,0,0,0.1s0,0.1,0,0.2c-0.3,1.5-0.9,2.8-1.8,4s-2,2.3-3.3,3.2s-2.8,1.6-4.4,2.1
			s-3.3,0.8-5.1,0.8c-1.6,0-3.1-0.2-4.6-0.7s-2.8-1.1-4-2s-2.1-2-2.8-3.4s-1.1-3-1.1-4.8c0-1.8,0.4-3.5,1.3-5s2-2.8,3.4-3.9
			s3.1-2,5-2.6s3.9-0.9,5.9-0.9c1.4,0,2.7,0.2,4,0.5s2.6,0.8,3.8,1.3s2.3,1.3,3.3,2.1s1.9,1.8,2.6,2.9s1.3,2.3,1.7,3.6
			S166.8,283.1,166.8,284.6z"/>
		<path fill="#A164AD" d="M203.9,288.3c0,1.6-0.2,3.2-0.6,4.7s-1,2.9-1.7,4.2s-1.6,2.5-2.7,3.6s-2.2,2-3.4,2.8s-2.6,1.4-4.1,1.8
			s-3,0.6-4.5,0.6s-3.1-0.2-4.5-0.6s-2.8-1-4.1-1.8s-2.4-1.7-3.4-2.8s-1.9-2.3-2.7-3.6s-1.3-2.7-1.7-4.2s-0.6-3.1-0.6-4.7
			s0.2-3.2,0.6-4.7s1-2.9,1.7-4.2s1.6-2.5,2.7-3.6s2.2-2,3.4-2.8s2.6-1.4,4.1-1.8s3-0.6,4.5-0.6s3.1,0.2,4.5,0.6s2.8,1,4.1,1.8
			s2.4,1.7,3.4,2.8s1.9,2.3,2.7,3.6s1.3,2.7,1.7,4.2S203.9,286.7,203.9,288.3z M202.1,288.3c0-1.5-0.2-2.9-0.6-4.2s-0.9-2.6-1.5-3.8
			s-1.5-2.3-2.4-3.2s-2-1.8-3.1-2.5s-2.3-1.2-3.6-1.6s-2.7-0.6-4.1-0.6s-2.8,0.2-4.1,0.6s-2.5,0.9-3.6,1.6s-2.2,1.5-3.1,2.5
			s-1.7,2-2.4,3.2s-1.2,2.4-1.5,3.8s-0.6,2.8-0.6,4.2s0.2,2.9,0.6,4.2s0.9,2.6,1.5,3.8s1.5,2.3,2.4,3.2s2,1.8,3.1,2.5
			s2.3,1.2,3.6,1.6s2.6,0.6,4.1,0.6s2.8-0.2,4.1-0.6s2.5-0.9,3.6-1.6s2.2-1.5,3.1-2.5s1.7-2,2.4-3.2s1.2-2.4,1.5-3.8
			S202.1,289.8,202.1,288.3z"/>
		<path fill="#A164AD" d="M218.9,272.6c0,0.6-0.1,1.3-0.4,1.9s-0.6,1.3-0.8,1.9c0,1.1,0,2.3,0,3.7s0,2.8,0,4.3s0,3,0,4.6
			s0,3.1,0,4.6s0,2.9,0,4.2s0,2.4,0,3.4s0,1.8,0,2.3s0,0.9,0,0.9c0,0.2-0.1,0.5-0.3,0.6s-0.4,0.3-0.6,0.3s-0.5-0.1-0.6-0.3
			s-0.2-0.4-0.2-0.6c0,0,0-0.5,0-1.3s0-1.9,0-3.2s0-2.9,0-4.6s0-3.5,0-5.4s0-3.7,0-5.5s0-3.5,0-5.1c-0.8,1.1-1.7,2.1-2.6,3
			s-1.8,1.7-2.6,2.3s-1.5,1.2-2,1.5s-0.8,0.6-0.9,0.6c-0.2,0.1-0.3,0.1-0.5,0.1c-0.2,0-0.4-0.1-0.6-0.2s-0.3-0.4-0.3-0.6
			c0-0.3,0.1-0.6,0.4-0.8c0,0,0.2-0.1,0.5-0.3s0.7-0.5,1.2-0.9s1.1-0.9,1.7-1.4s1.3-1.2,2-1.9s1.3-1.4,1.9-2.2s1.2-1.7,1.7-2.5
			c0-0.2,0-0.5,0-0.8s0-0.6,0-0.9s0-0.6,0-0.9s0-0.5,0-0.7c0-0.7,0.2-1.2,0.4-1.5s0.6-0.5,1.1-0.5s0.8,0.2,1.1,0.6
			S218.9,272.1,218.9,272.6z"/>
	</g>
	<g>
		<path fill="#FFC600" d="M241.9,139.4c-1.4-1.3-3.6-1.3-5,0l-0.9,0.9l-0.9-0.9c-1.4-1.3-3.6-1.3-5,0c-1.5,1.4-1.5,3.7,0,5.1
			l5.9,5.4l5.9-5.4C243.4,143.2,243.4,140.9,241.9,139.4z"/>
	</g>
</g>
</svg>
